<svg id="svg" xmlns="http://www.w3.org/2000/svg" xmlns:xlink="http://www.w3.org/1999/xlink" width="500" height="450.52083333333337" viewBox="0, 0, 500,450.52083333333337"><g id="svgg"><path id="path0" d="M172.807 80.496 C 170.243 81.377,168.096 83.143,167.299 85.026 C 167.117 85.456,166.538 86.217,166.014 86.719 C 164.343 88.315,164.826 86.298,157.712 121.354 C 151.968 149.655,150.160 158.174,149.760 158.822 C 149.666 158.973,143.686 161.268,136.469 163.923 L 123.349 168.750 92.469 168.751 C 59.876 168.752,58.767 168.787,54.688 169.965 C 44.298 172.965,35.860 182.481,29.209 198.698 C 14.136 235.450,0.000 279.045,-0.000 288.779 C -0.000 298.756,12.574 303.783,20.169 296.842 C 23.795 293.528,22.210 297.595,42.935 238.411 L 51.507 213.932 54.399 213.859 L 57.292 213.785 57.292 325.005 C 57.292 448.409,57.138 437.918,58.997 441.797 C 64.604 453.500,83.041 453.534,88.799 441.853 C 90.757 437.880,90.615 443.372,90.620 371.029 L 90.625 305.990 93.356 305.990 L 96.087 305.990 96.161 371.549 C 96.231 433.929,96.257 437.184,96.705 438.654 C 101.639 454.835,125.844 454.425,129.302 438.103 C 129.627 436.571,129.678 420.765,129.676 322.786 L 129.674 209.245 131.178 205.149 L 132.682 201.053 133.984 200.497 C 148.435 194.328,166.477 183.409,168.352 179.698 C 169.787 176.859,176.302 151.109,176.302 148.279 C 176.302 147.109,176.676 148.664,178.100 155.750 C 180.190 166.157,181.389 171.401,182.466 174.839 L 183.372 177.734 185.640 179.948 C 189.810 184.018,197.832 189.230,210.547 196.131 L 214.714 198.393 214.876 202.126 C 214.966 204.179,215.056 256.719,215.077 318.880 C 215.116 435.080,215.105 433.907,216.184 437.325 C 220.333 450.468,240.725 451.590,246.846 439.012 C 248.723 435.154,248.558 441.621,248.636 368.815 L 248.706 303.385 251.436 303.385 L 254.167 303.385 254.171 368.555 C 254.175 440.736,254.039 435.165,255.886 439.005 C 261.892 451.492,282.085 450.550,286.598 437.573 C 287.776 434.187,287.750 436.841,287.755 319.113 L 287.760 206.065 289.154 202.316 L 290.548 198.568 292.136 197.526 C 293.009 196.953,295.809 195.137,298.357 193.490 C 310.620 185.563,317.768 179.736,319.283 176.430 C 320.943 172.809,323.727 161.599,327.583 143.008 L 329.330 134.583 331.604 145.872 C 336.028 167.831,338.277 176.395,340.196 178.580 C 343.412 182.243,362.332 193.666,371.791 197.656 C 372.533 197.969,373.216 198.419,373.309 198.657 C 373.403 198.894,374.056 200.690,374.760 202.648 L 376.042 206.207 376.042 319.617 C 376.042 415.901,376.097 433.316,376.407 434.938 C 379.629 451.775,403.303 452.422,407.557 435.790 C 408.065 433.803,408.073 432.728,408.073 368.578 L 408.073 303.385 410.673 303.385 L 413.272 303.385 413.343 368.815 C 413.410 430.626,413.440 434.331,413.877 435.807 C 418.531 451.525,439.372 452.232,444.567 436.849 L 445.182 435.026 445.249 322.982 L 445.317 210.938 448.027 210.938 L 450.738 210.938 456.655 228.711 C 476.882 289.463,477.190 290.312,480.135 293.493 C 487.525 301.475,499.927 296.556,499.838 285.677 C 499.766 276.875,491.738 249.398,479.372 215.625 C 473.347 199.171,472.751 197.567,471.632 194.792 C 465.816 180.369,458.085 170.991,449.368 167.783 C 445.031 166.188,447.787 166.312,413.281 166.157 L 381.901 166.016 369.531 161.217 C 362.728 158.578,357.077 156.293,356.975 156.139 C 356.872 155.985,356.659 155.273,356.501 154.557 C 355.320 149.183,353.234 138.705,348.843 116.086 C 342.247 82.111,343.050 85.165,340.098 82.832 C 335.036 78.831,323.876 78.736,318.393 82.648 C 315.069 85.020,315.663 83.133,310.931 106.380 C 304.456 138.199,303.601 142.353,302.170 148.957 C 301.378 152.609,300.635 155.777,300.517 155.996 C 300.400 156.216,295.975 158.589,290.683 161.270 L 281.063 166.146 252.185 166.146 L 223.307 166.147 211.589 161.284 C 205.143 158.609,199.833 156.394,199.788 156.362 C 199.481 156.141,197.360 144.900,192.200 116.146 C 186.391 83.772,186.816 85.831,185.648 84.378 C 182.647 80.643,177.182 78.991,172.807 80.496 M243.229 103.111 C 221.270 107.773,212.830 134.766,228.253 151.011 C 244.331 167.946,273.228 159.401,277.216 136.532 C 280.742 116.314,263.038 98.905,243.229 103.111 M406.161 102.862 C 373.444 108.745,377.374 159.734,410.547 159.762 C 424.414 159.774,435.343 150.220,437.636 136.083 C 440.772 116.749,424.492 99.566,406.161 102.862 M90.625 105.345 C 90.410 105.387,89.365 105.564,88.302 105.737 C 70.456 108.651,59.924 128.582,67.271 145.536 C 74.533 162.295,95.911 167.999,110.569 157.090 C 129.143 143.266,124.412 113.839,102.460 106.641 C 99.121 105.547,93.012 104.878,90.625 105.345 " stroke="none" fill="#000000" fill-rule="evenodd"></path></g></svg>