<?xml version="1.0" encoding="utf-8"?>
<!-- Svg Vector Icons : http://www.onlinewebfonts.com/icon -->
<!DOCTYPE svg PUBLIC "-//W3C//DTD SVG 1.1//EN" "http://www.w3.org/Graphics/SVG/1.1/DTD/svg11.dtd">
<svg version="1.1" xmlns="http://www.w3.org/2000/svg" xmlns:xlink="http://www.w3.org/1999/xlink" x="0px" y="0px" viewBox="0 0 1000 1000" enable-background="new 0 0 1000 1000" xml:space="preserve">
<metadata> Svg Vector Icons : http://www.onlinewebfonts.com/icon </metadata>
<g><g><path d="M30.1,553.9c-26.8-26.8-26.8-70.2,0-97L451.5,35.5c13.4-13.4,31-20.1,48.5-20.1c17.6,0,35.1,6.7,48.5,20.1l421.4,421.4c26.8,26.8,26.8,70.2,0,97c-26.8,26.8-70.3,26.8-97.1,0L500,181.1L127.2,553.9C100.3,580.7,56.9,580.7,30.1,553.9z M548.5,446.1c-13.4-13.4-31-20.1-48.5-20.1c-17.6,0-35.1,6.7-48.5,20.1L30.1,867.5c-26.8,26.8-26.8,70.3,0,97.1c26.8,26.8,70.3,26.8,97.1,0L500,591.7l372.8,372.8c26.8,26.8,70.3,26.8,97.1,0c26.8-26.8,26.8-70.3,0-97.1L548.5,446.1z"/></g><g></g><g></g><g></g><g></g><g></g><g></g><g></g><g></g><g></g><g></g><g></g><g></g><g></g><g></g><g></g></g>
</svg>