<svg id="svg" xmlns="http://www.w3.org/2000/svg" xmlns:xlink="http://www.w3.org/1999/xlink" width="500" height="623.3766233766233" viewBox="0, 0, 500,623.3766233766233"><g id="svgg"><path id="path0" d="M116.234 12.862 C 95.200 15.514,79.474 28.068,73.093 47.304 C 58.038 92.682,111.427 132.043,149.513 103.645 C 179.137 81.556,178.880 45.067,148.933 21.305 C 141.526 15.428,126.552 11.562,116.234 12.862 M374.351 12.864 C 347.160 16.340,328.751 36.657,328.785 63.149 C 328.837 103.433,375.637 127.540,407.532 103.713 C 437.146 81.591,437.047 45.510,407.305 21.499 C 399.887 15.510,384.727 11.538,374.351 12.864 M202.435 99.542 C 192.090 100.151,183.752 100.937,176.786 101.958 C 169.001 103.100,169.861 102.723,165.959 106.711 C 151.592 121.396,132.125 128.012,111.539 125.205 C 108.215 124.751,103.862 124.675,81.263 124.675 L 54.870 124.675 54.883 254.464 C 54.898 400.343,55.355 560.744,55.824 585.243 L 56.136 601.493 56.996 603.912 C 61.516 616.623,71.278 623.052,86.060 623.052 C 95.271 623.052,98.890 621.575,106.376 614.760 C 115.524 606.433,115.167 612.129,115.474 469.399 L 115.691 368.506 120.946 368.506 L 126.200 368.506 126.411 420.698 C 126.528 449.403,126.711 502.110,126.819 537.825 L 127.015 602.760 128.815 606.006 C 135.579 618.203,143.757 623.226,156.818 623.205 C 168.092 623.187,177.071 618.104,182.980 608.397 C 185.841 603.696,185.888 601.215,186.361 433.279 C 186.558 363.458,186.822 283.320,186.947 255.195 L 187.175 204.058 218.019 186.264 C 234.984 176.477,249.176 168.316,249.558 168.128 C 250.163 167.830,254.332 170.135,281.744 185.922 L 313.234 204.058 313.431 222.565 C 313.538 232.744,313.707 294.399,313.805 359.578 C 314.062 531.037,314.512 591.212,315.618 601.948 C 316.814 613.571,329.804 623.395,343.941 623.370 C 356.407 623.347,364.746 618.052,371.828 605.661 L 373.325 603.042 373.676 507.284 C 373.870 454.617,374.027 401.847,374.027 390.016 L 374.026 368.506 379.526 368.506 L 385.027 368.506 385.159 475.081 C 385.293 583.556,385.332 587.038,386.534 597.780 C 387.512 606.522,388.736 609.537,393.019 613.752 C 400.965 621.569,405.075 623.239,415.722 622.971 C 429.902 622.614,438.633 616.607,443.406 603.924 C 444.997 599.700,445.445 530.023,445.451 286.282 L 445.455 124.675 418.101 124.677 C 394.657 124.679,390.283 124.753,387.500 125.196 C 367.837 128.329,348.202 121.614,333.369 106.684 L 329.649 102.940 326.756 102.447 C 307.293 99.129,274.064 98.403,255.519 100.890 C 250.449 101.570,250.147 101.570,244.805 100.887 C 236.295 99.798,211.460 99.010,202.435 99.542 M457.004 131.250 C 456.563 139.163,456.632 342.127,457.077 346.728 C 457.942 355.672,460.469 360.313,466.659 364.322 C 475.853 370.278,490.250 367.081,496.745 357.642 C 499.941 352.997,499.838 356.078,499.838 265.260 C 499.838 174.796,499.922 177.586,496.924 168.626 C 492.113 154.251,480.569 140.157,467.633 132.867 C 464.872 131.311,457.620 127.597,457.343 127.597 C 457.268 127.597,457.115 129.241,457.004 131.250 M38.149 131.597 C 15.573 143.152,2.504 161.484,0.596 184.272 C -0.019 191.611,-0.039 335.817,0.573 344.871 C 1.523 358.920,3.093 362.156,10.889 366.127 C 22.121 371.849,31.756 369.900,39.494 360.341 C 42.418 356.729,42.508 356.437,42.899 349.312 C 43.213 343.591,43.740 134.584,43.451 130.459 L 43.344 128.938 38.149 131.597 " stroke="none" fill="#000000" fill-rule="evenodd"></path></g></svg>