<?xml version="1.0" encoding="utf-8"?>
<!-- Generator: Adobe Illustrator 22.0.0, SVG Export Plug-In . SVG Version: 6.00 Build 0)  -->
<svg version="1.0" id="Layer_1" xmlns="http://www.w3.org/2000/svg" xmlns:xlink="http://www.w3.org/1999/xlink" x="0px" y="0px"
	 viewBox="0 0 4229 3274" style="enable-background:new 0 0 4229 3274;" xml:space="preserve">
<style type="text/css">
	.st0{fill:#414042;}
</style>
<g>
	<path class="st0" d="M997.3,2558.3l-440-82.5c-37.3-7-42.8-58.2-7.9-73L1858,1848c31.2-13.2,62.9,17.6,50.7,49.1l-515,1329.2
		c-14.2,36.7-67.8,30.7-73.7-8.2l-66.9-448.1L845.7,3237c-19.8,22.7-54.8,23.9-76.1,2.6l-250.3-250.3c-22.5-22.5-19.8-59.6,5.7-78.6
		L997.3,2558.3z"/>
	<circle class="st0" cx="2292.9" cy="1157.6" r="381.4"/>
	<path class="st0" d="M3305.6,450.7C3035.1,180.2,2675.4,31.3,2292.9,31.3s-742.2,149-1012.7,419.5
		c-270.5,270.5-419.5,630.1-419.5,1012.7c0,243.3,60.4,477.4,173.9,685.1l166.5-70.6c-102.7-181.7-161.4-391.4-161.4-614.5
		c0-691,562.2-1253.2,1253.2-1253.2S3546,772.4,3546,1463.4s-562.2,1253.2-1253.2,1253.2c-215.3,0-418.1-54.6-595.3-150.6
		l-65.4,168.8c201.6,105.1,426.8,160.8,660.7,160.8c382.5,0,742.2-149,1012.7-419.5C3576.1,2205.6,3725,1846,3725,1463.4
		S3576.1,721.2,3305.6,450.7z"/>
	<path class="st0" d="M2600.4,1464.5c-78.7,78.9-187.5,127.7-307.5,127.7c-120,0-228.8-48.9-307.5-127.7
		c-166.6,86.2-292.4,240.2-340.9,425.5l196.1-83.1c30.8-13.1,66.2-6.5,90.2,16.8c24,23.3,31.7,58.5,19.7,89.7l-92,237.4h1104.7
		v-90.4C2963.2,1800.9,2815.9,1575.9,2600.4,1464.5z"/>
</g>
</svg>
