<?xml version="1.0" standalone="no"?>
<!DOCTYPE svg PUBLIC "-//W3C//DTD SVG 20010904//EN"
 "http://www.w3.org/TR/2001/REC-SVG-20010904/DTD/svg10.dtd">
<svg version="1.0" xmlns="http://www.w3.org/2000/svg"
 width="300.000000pt" height="300.000000pt" viewBox="0 0 300.000000 300.000000"
 preserveAspectRatio="xMidYMid meet">
<metadata>
Created by potrace 1.10, written by Peter Selinger 2001-2011
</metadata>
<g transform="translate(0.000000,300.000000) scale(0.100000,-0.100000)"
fill="#ff9900" stroke="none">
<path d="M2392 2973 c-6 -16 -29 -95 -51 -177 -71 -257 -210 -574 -335 -764
l-48 -73 -36 28 c-119 90 -232 144 -347 164 -108 18 -274 7 -360 -25 -86 -33
-174 -83 -240 -136 -43 -34 -52 -38 -61 -25 -6 8 -36 91 -67 183 -68 204 -131
518 -136 673 -1 38 -8 88 -15 112 -17 59 -41 60 -93 4 -47 -50 -80 -133 -89
-215 -9 -95 -12 -102 -40 -102 -76 0 -145 -179 -128 -330 6 -54 4 -61 -19 -84
-33 -33 -42 -93 -27 -176 9 -50 9 -65 0 -68 -56 -19 -65 -100 -24 -197 32 -73
39 -110 25 -119 -17 -11 -13 -80 9 -139 11 -29 40 -81 64 -116 37 -52 44 -68
39 -96 -6 -38 11 -69 71 -132 22 -24 37 -45 34 -49 -4 -3 -44 -8 -90 -11 -117
-7 -124 -15 -132 -157 -4 -61 -9 -112 -11 -115 -3 -2 -58 -8 -122 -13 -103 -8
-121 -12 -142 -32 l-23 -24 41 -116 c23 -65 41 -127 41 -139 0 -12 -14 -65
-30 -117 -36 -116 -40 -196 -10 -228 24 -25 37 -26 240 -12 74 5 214 14 310
20 220 14 214 9 223 165 4 60 9 110 11 112 5 5 37 7 750 48 335 20 611 33 615
30 3 -4 5 -44 4 -91 -2 -66 1 -90 15 -116 l19 -33 124 0 c174 0 618 15 635 22
9 3 14 22 14 56 0 40 -12 79 -55 178 l-55 127 15 68 c8 38 19 87 25 109 27
110 12 125 -126 125 -101 0 -104 1 -106 23 -2 24 -5 100 -7 164 -2 72 -12 76
-184 68 l-150 -7 23 37 c31 51 15 58 -26 10 -19 -21 -56 -52 -82 -67 l-47 -29
55 6 c52 5 338 25 370 25 13 0 14 -18 8 -132 -4 -72 -5 -134 -3 -137 2 -3 60
-2 129 3 69 5 128 7 130 5 3 -2 -10 -65 -28 -139 -33 -133 -33 -136 -16 -170
25 -51 120 -278 120 -288 0 -5 -127 -12 -282 -16 -156 -3 -327 -9 -380 -13
l-98 -6 0 132 0 132 -87 -7 c-49 -3 -374 -23 -723 -43 l-635 -36 -5 -135 -5
-135 -275 -16 c-151 -9 -314 -20 -363 -23 l-87 -7 0 57 c0 32 4 71 10 88 5 17
21 67 35 112 l25 80 -45 132 c-25 73 -45 134 -45 137 0 3 24 5 53 5 28 0 96 3
149 7 l97 6 3 136 3 136 144 7 c79 4 146 9 148 12 3 2 -8 11 -24 20 -49 25
-130 104 -157 153 -15 25 -24 48 -22 51 3 2 26 -14 53 -36 26 -23 95 -73 153
-111 81 -55 112 -71 140 -71 l35 1 -30 13 c-25 11 -109 69 -150 103 -5 5 -37
28 -70 52 -112 82 -169 149 -215 256 -24 56 -31 120 -13 120 6 0 34 -30 62
-67 54 -71 401 -432 408 -424 10 10 -26 59 -97 133 -69 72 -109 115 -241 258
-105 115 -181 261 -181 348 0 55 9 71 26 43 80 -133 219 -324 376 -517 25 -31
51 -65 58 -75 11 -17 12 -14 7 20 -5 30 -31 71 -109 170 -220 281 -285 388
-306 507 -11 61 -7 142 10 168 5 10 14 0 29 -34 12 -26 21 -49 21 -51 0 -9
175 -322 245 -439 42 -70 81 -138 87 -151 15 -33 28 -30 28 5 0 19 -18 57 -50
104 -68 104 -153 259 -222 407 -32 69 -65 136 -72 150 -51 92 -35 289 31 378
27 36 53 42 53 12 0 -79 152 -524 255 -745 20 -44 40 -91 44 -105 8 -25 8 -25
19 -4 10 19 4 38 -39 129 -92 198 -154 367 -200 550 -54 214 -37 384 51 508
23 31 44 57 48 57 4 0 7 -26 7 -58 1 -125 19 -255 71 -522 13 -69 75 -273 110
-363 20 -51 38 -104 41 -120 l5 -27 59 55 c76 70 178 130 276 163 68 23 94 26
208 26 114 0 140 -3 208 -26 92 -31 195 -90 263 -151 l49 -44 62 101 c78 127
201 372 246 491 68 179 134 400 139 464 1 17 6 31 11 31 4 0 23 -33 42 -72 27
-58 35 -88 38 -148 4 -93 -13 -197 -49 -287 -67 -171 -218 -437 -355 -625 -29
-41 -46 -73 -43 -83 3 -8 9 -15 13 -14 8 0 146 210 225 341 71 119 151 273
212 406 l42 94 20 -22 c37 -40 54 -141 40 -241 -8 -58 -40 -147 -57 -159 -4
-3 -43 -57 -86 -120 -81 -120 -234 -314 -304 -388 -40 -41 -49 -61 -34 -75 16
-16 449 515 468 573 12 39 25 19 25 -40 0 -158 -102 -297 -426 -584 -31 -28
-44 -47 -44 -66 0 -25 4 -22 78 44 42 38 148 141 235 228 86 87 159 158 162
158 3 0 5 -16 5 -35 0 -60 -76 -181 -167 -265 -63 -58 -85 -75 -223 -180 -95
-72 -100 -77 -100 -103 0 -15 6 -13 38 12 20 17 78 61 127 97 50 37 123 96
162 132 87 77 104 67 54 -31 -50 -99 -132 -174 -268 -246 -63 -33 -119 -61
-123 -61 -6 0 -30 -44 -30 -55 0 -7 244 116 262 132 9 8 22 12 29 7 7 -4 10
-3 6 3 -3 5 20 38 53 73 62 66 120 163 120 199 0 12 -5 30 -11 40 -10 15 -5
28 30 79 73 108 86 168 45 209 l-26 26 21 64 c27 82 27 142 1 176 -19 24 -20
27 -3 89 41 156 2 335 -75 341 -18 1 -19 10 -19 112 -1 116 -11 160 -53 232
-31 53 -71 60 -88 16z"/>
<path d="M1360 2081 c-47 -7 -90 -26 -90 -39 0 -5 -15 -6 -34 -4 -60 7 -216
-91 -286 -180 -68 -85 -44 -80 48 10 63 64 107 98 162 125 l74 38 22 -43 c11
-24 24 -58 27 -75 6 -33 6 -33 -35 -33 -100 0 -310 -79 -328 -123 -4 -12 -25
-38 -45 -57 -48 -45 -60 -71 -74 -151 -22 -131 -9 -258 40 -373 16 -39 39 -79
50 -89 26 -21 67 -22 97 -2 17 13 26 14 44 4 33 -18 301 -4 333 17 19 12 28
13 46 4 16 -9 59 -10 153 -5 177 9 207 13 227 31 16 14 20 14 43 -1 38 -25
176 -12 204 18 56 61 77 248 35 319 -13 22 -17 38 -11 40 34 12 -114 168 -219
232 l-63 39 21 28 c27 38 76 72 94 65 21 -8 100 -118 129 -179 13 -29 30 -75
37 -103 14 -57 29 -80 29 -43 0 50 -31 143 -71 209 -40 67 -125 158 -136 146
-4 -3 -14 7 -24 24 -35 57 -195 137 -252 126 -20 -4 -36 -1 -47 9 -19 17 -134
27 -200 16z m190 -33 c0 -7 -8 -50 -17 -96 l-17 -83 -41 6 c-22 3 -61 6 -87 8
-45 2 -46 3 -52 40 -4 22 -15 56 -26 78 -11 21 -20 40 -20 43 0 8 52 13 158
15 76 1 102 -2 102 -11z m136 -31 c28 -12 76 -37 106 -56 l56 -34 -48 -44
c-27 -24 -52 -53 -55 -64 -5 -15 -12 -18 -23 -13 -10 4 -46 18 -82 30 -74 26
-72 22 -49 137 15 76 18 77 95 44z m-360 -148 c10 -17 -23 -46 -38 -31 -8 8
-8 15 2 27 15 18 26 19 36 4z m223 -18 c12 -8 13 -12 1 -26 -12 -14 -15 -14
-28 -1 -8 8 -11 19 -8 25 9 13 16 14 35 2z m-47 -30 c3 -1 0 -25 -7 -53 -8
-29 -41 -186 -76 -348 -34 -162 -62 -296 -63 -297 0 -1 -71 -6 -156 -11 -107
-7 -157 -7 -161 0 -16 26 -19 129 -5 196 20 96 61 172 172 319 53 69 105 144
115 167 l18 42 78 -7 c43 -4 81 -8 85 -8z m-236 -18 c-8 -16 -56 -82 -106
-148 -97 -128 -161 -247 -179 -333 -13 -65 -14 -146 -2 -190 9 -30 8 -32 -14
-32 -13 0 -30 -3 -38 -6 -19 -7 -68 91 -91 182 -19 72 -21 220 -5 295 15 71
78 137 175 186 73 35 193 71 247 72 27 1 27 0 13 -26z m374 -21 c73 -27 75
-28 72 -59 -2 -17 13 -101 34 -185 38 -161 51 -275 40 -350 l-7 -45 -182 -9
c-100 -6 -183 -10 -184 -9 -1 0 29 147 67 325 39 178 70 332 70 342 0 22 -1
22 90 -10z m123 -43 c-8 -8 -15 -5 -23 11 -10 18 -9 24 1 31 18 11 37 -27 22
-42z m96 -72 c90 -68 156 -144 194 -226 29 -62 30 -65 18 -130 -7 -36 -20 -84
-30 -107 -18 -40 -19 -41 -81 -47 -35 -4 -77 -7 -94 -7 l-31 0 0 128 c0 110
-5 144 -33 255 -33 131 -39 187 -23 187 5 0 42 -24 80 -53z"/>
<path d="M2399 1038 c-16 -10 -29 -23 -29 -29 0 -7 -12 0 -26 15 -31 30 -41
32 -64 11 -15 -14 -21 -14 -54 0 -44 19 -121 14 -144 -9 -9 -9 -15 -35 -16
-65 -1 -60 -12 -61 -35 -4 -21 53 -39 73 -65 73 -26 0 -53 -41 -62 -97 -9 -61
-18 -71 -46 -54 -13 8 -35 21 -50 29 -36 18 -36 32 0 32 16 0 37 9 47 20 17
19 17 21 0 40 -26 29 -101 27 -147 -4 -34 -23 -35 -23 -57 -5 -29 24 -93 25
-132 2 -24 -14 -32 -15 -53 -3 -27 14 -45 6 -74 -33 -13 -17 -15 -16 -34 8
-22 28 -49 32 -68 10 -19 -23 -5 -253 17 -277 9 -10 21 -18 28 -18 17 0 45 33
45 53 0 21 16 22 24 2 9 -25 68 -56 83 -44 8 7 28 8 55 3 57 -10 87 -6 118 16
23 16 28 17 54 3 20 -10 43 -13 80 -9 28 4 67 7 87 7 28 0 43 7 63 29 32 36
46 37 75 6 19 -20 32 -24 74 -23 46 2 53 5 67 32 8 17 16 32 17 34 1 2 14 -10
28 -27 23 -27 31 -30 76 -29 50 2 78 20 92 60 3 7 12 2 26 -15 26 -33 57 -44
77 -27 11 9 23 9 54 0 50 -15 112 0 135 32 17 24 21 112 5 122 -6 4 -10 -13
-10 -43 0 -68 -25 -94 -87 -90 -67 4 -80 27 -88 161 -7 102 -6 107 13 107 17
0 20 -10 25 -104 4 -57 9 -111 13 -119 8 -23 39 -30 65 -16 21 11 22 15 16
130 -4 85 -3 119 5 119 6 0 8 3 5 6 -4 4 -13 1 -22 -6 -12 -10 -15 -35 -15
-116 0 -82 -3 -104 -14 -104 -18 0 -26 31 -26 110 0 36 -6 76 -13 90 -11 21
-19 25 -61 25 -29 0 -61 -7 -77 -17z m51 -14 c0 -10 -16 -36 -35 -60 -19 -23
-35 -45 -35 -48 0 -3 23 -35 50 -72 55 -73 59 -84 32 -84 -11 0 -36 25 -61 61
-50 71 -66 68 -62 -11 1 -38 -2 -52 -14 -56 -9 -4 -17 -5 -19 -3 -2 2 -7 66
-11 142 -7 134 -7 137 13 137 19 0 21 -7 24 -62 l3 -62 44 67 c43 65 71 85 71
51z m-210 -24 c29 -29 27 -85 -4 -113 l-25 -23 30 -47 c34 -54 36 -67 12 -67
-11 0 -29 22 -49 58 -20 38 -37 57 -49 57 -16 0 -18 -7 -16 -62 2 -58 1 -63
-18 -63 -18 0 -21 6 -21 48 0 27 -3 90 -6 140 l-7 92 67 0 c53 0 70 -4 86 -20z
m-210 -116 c25 -70 47 -130 48 -135 2 -5 -6 -9 -17 -9 -16 0 -23 8 -28 30 -6
30 -6 31 -52 24 -48 -7 -61 -17 -61 -46 0 -12 -8 -18 -21 -18 -17 0 -20 4 -15
23 3 12 18 69 31 127 32 132 31 130 52 130 14 0 28 -29 63 -126z m-185 96 c0
-11 -9 -14 -29 -12 -60 7 -94 -16 -80 -52 3 -8 28 -22 54 -31 55 -18 67 -30
70 -65 6 -65 -21 -100 -76 -100 -40 0 -84 19 -84 36 0 22 20 27 39 10 31 -28
91 -13 91 24 0 36 -12 49 -61 65 -71 24 -91 75 -47 122 19 20 30 23 73 21 36
-2 50 -7 50 -18z m-211 -3 c21 -15 35 -78 36 -161 0 -74 -24 -106 -80 -106
-53 0 -72 19 -81 81 -15 106 -11 148 16 174 27 28 80 33 109 12z m-164 -9 c0
-6 -6 -19 -14 -27 -8 -9 -25 -32 -38 -51 l-24 -35 53 -68 c29 -38 50 -73 47
-78 -12 -21 -33 -5 -76 57 -45 63 -47 65 -58 43 -7 -12 -10 -41 -7 -65 4 -37
2 -44 -13 -44 -16 0 -19 12 -24 88 -4 48 -8 108 -11 135 -4 41 -2 47 15 47 18
0 20 -7 20 -60 0 -33 3 -60 8 -60 4 0 25 29 47 65 24 38 47 64 58 65 9 0 17
-5 17 -12z m990 -59 c0 -44 -9 -49 -29 -18 -10 18 -10 26 0 45 17 32 29 21 29
-27z m-981 -72 c1 -35 -20 -32 -33 6 -7 18 -6 30 4 42 13 16 15 16 21 -2 4
-10 8 -31 8 -46z m316 -35 c7 -18 -24 -27 -46 -14 -10 7 -25 12 -33 12 -12 0
-29 44 -20 53 7 7 94 -38 99 -51z"/>
<path d="M2148 993 c-14 -3 -18 -15 -18 -54 0 -49 0 -49 33 -49 42 0 57 15 57
57 0 27 -5 35 -26 43 -14 6 -26 9 -27 9 -1 -1 -10 -3 -19 -6z m40 -50 c-4 -22
-22 -20 -26 1 -2 10 3 16 13 16 10 0 15 -7 13 -17z"/>
<path d="M1956 907 c-4 -23 -9 -52 -13 -64 -5 -21 -2 -23 35 -23 l41 0 -19 43
c-11 23 -20 50 -20 59 0 36 -18 25 -24 -15z"/>
<path d="M1553 953 c-16 -6 -18 -165 -3 -194 11 -20 45 -25 70 -9 12 7 14 27
12 91 -1 45 -7 90 -13 100 -9 18 -39 23 -66 12z m45 -48 c17 -37 15 -122 -2
-128 -22 -9 -26 2 -26 80 0 76 9 91 28 48z"/>
<path d="M1092 974 c-29 -20 -28 -42 2 -55 29 -13 36 -35 36 -110 0 -65 -13
-77 -51 -48 -13 10 -32 19 -41 19 -11 0 -23 19 -37 58 -38 105 -53 127 -86
127 -30 0 -42 -14 -66 -80 l-12 -30 -8 29 c-4 16 -18 39 -30 52 -19 21 -32 24
-89 24 -54 0 -69 -4 -83 -20 -16 -19 -19 -20 -39 -5 -33 22 -100 19 -132 -6
-24 -19 -31 -20 -51 -9 -13 7 -29 10 -37 7 -9 -4 -8 -6 4 -6 17 -1 16 3 32
-213 5 -63 4 -68 -14 -68 -16 0 -20 7 -20 34 0 18 -3 62 -7 97 -5 49 -8 58
-14 39 -10 -37 -10 -125 0 -153 14 -35 40 -42 67 -16 22 21 25 21 42 6 27 -25
112 -23 145 3 22 18 26 18 38 4 19 -24 52 -13 69 24 l16 33 22 -31 c20 -26 29
-30 70 -30 40 0 52 5 74 30 32 36 40 37 72 7 21 -20 37 -24 102 -25 137 -3
161 28 150 191 -6 86 -10 105 -27 120 -26 21 -67 22 -97 1z m96 -134 c4 -131
-3 -146 -72 -157 -30 -5 -42 -1 -61 17 -14 13 -25 32 -25 42 0 24 31 23 37 -2
9 -35 74 -38 87 -3 4 8 3 58 0 110 l-7 94 -29 -6 c-22 -5 -28 -3 -28 10 0 13
9 16 48 13 l47 -3 3 -115z m-236 55 c11 -27 30 -79 43 -115 12 -36 26 -73 30
-82 5 -14 2 -18 -13 -18 -13 0 -24 10 -31 31 -10 28 -13 30 -48 24 -59 -10
-63 -13 -63 -40 0 -18 -5 -25 -20 -25 -11 0 -20 2 -20 4 0 11 62 261 67 268
12 21 36 0 55 -47z m-174 28 c12 -10 24 -35 28 -55 5 -32 2 -41 -21 -62 l-27
-25 31 -51 c36 -59 37 -60 12 -60 -13 0 -30 18 -50 55 -22 39 -37 55 -52 55
-19 0 -20 -4 -13 -60 6 -57 5 -60 -15 -60 -18 0 -21 6 -21 43 0 24 -3 85 -6
135 -7 89 -7 90 17 95 55 10 98 6 117 -10z m-200 -10 c28 -24 32 -56 9 -61
-12 -2 -20 3 -24 17 -6 23 -34 35 -62 26 -27 -8 -28 -18 -22 -114 7 -92 18
-109 63 -98 16 4 27 15 30 29 7 42 -2 58 -33 58 -19 0 -29 5 -29 15 0 11 12
15 50 15 l50 0 0 -49 c0 -66 -27 -101 -80 -101 -22 0 -47 8 -61 19 -22 17 -24
29 -27 116 -3 80 -1 99 13 115 29 32 93 38 123 13z m-22 -67 c18 -14 18 -15
-9 -21 -30 -8 -54 6 -43 24 10 15 28 14 52 -3z m265 -73 c-10 -17 -10 -16 -11
3 0 23 13 41 18 25 2 -6 -1 -18 -7 -28z m-281 -48 c0 -8 -4 -15 -9 -15 -13 0
-22 16 -14 24 11 11 23 6 23 -9z"/>
<path d="M905 843 c-4 -26 -11 -56 -16 -65 -9 -16 -5 -18 31 -18 22 0 40 3 40
8 0 8 -40 115 -45 120 -1 2 -6 -19 -10 -45z"/>
<path d="M674 894 c3 -9 6 -33 6 -55 0 -38 0 -38 33 -32 43 8 57 20 57 52 0
37 -17 51 -63 51 -32 0 -38 -3 -33 -16z m61 -32 c0 -18 -20 -15 -23 4 -3 10 1
15 10 12 7 -3 13 -10 13 -16z"/>
<path d="M2476 603 c-1 -2 -40 -5 -86 -8 -98 -6 -116 -10 -124 -32 -6 -14 -3
-14 19 1 15 10 34 16 43 14 12 -3 5 -12 -25 -32 -24 -16 -43 -33 -43 -37 0
-15 8 -11 68 30 59 40 102 58 102 44 0 -5 -36 -32 -80 -62 -44 -29 -83 -58
-86 -63 -17 -27 15 -12 116 57 68 46 121 75 133 73 15 -2 -16 -27 -104 -84
-117 -76 -164 -114 -142 -114 5 0 78 46 163 102 85 57 162 106 170 109 8 4
-16 6 -53 5 -38 0 -70 -2 -71 -3z"/>
<path d="M2494 502 c-171 -111 -216 -143 -210 -149 10 -11 305 175 335 210 26
33 -8 16 -125 -61z"/>
<path d="M554 491 c-3 -3 -24 -6 -47 -7 -23 0 -64 -1 -90 -2 l-49 -2 64 -34
c35 -18 113 -60 173 -93 125 -67 145 -76 145 -63 0 10 -31 28 -195 116 -73 39
-103 60 -90 62 11 1 76 -27 143 -63 68 -37 129 -64 135 -62 14 4 -48 45 -138
89 -36 18 -65 36 -65 40 0 18 42 5 116 -37 79 -45 124 -60 94 -31 -8 8 -40 27
-70 42 -34 18 -49 30 -38 32 9 2 35 -6 57 -17 55 -29 70 -26 35 6 -25 23 -38
27 -102 28 -40 1 -75 -1 -78 -4z"/>
<path d="M360 435 c11 -13 225 -133 255 -143 5 -2 29 -12 52 -23 46 -20 73
-25 58 -10 -12 12 -360 191 -370 191 -4 0 -2 -7 5 -15z"/>
</g>
</svg>
