<?xml version="1.0" standalone="no"?>
<!DOCTYPE svg PUBLIC "-//W3C//DTD SVG 20010904//EN"
 "http://www.w3.org/TR/2001/REC-SVG-20010904/DTD/svg10.dtd">
<svg version="1.0" xmlns="http://www.w3.org/2000/svg"
 width="300.000000pt" height="300.000000pt" viewBox="0 0 300.000000 300.000000"
 preserveAspectRatio="xMidYMid meet">
<metadata>
Created by potrace 1.10, written by Peter Selinger 2001-2011
</metadata>
<g transform="translate(0.000000,300.000000) scale(0.100000,-0.100000)"
fill="#000000" stroke="none">
<path d="M1395 2499 c-92 -14 -192 -47 -280 -92 -62 -32 -102 -63 -175 -137
-171 -172 -239 -334 -240 -571 0 -172 52 -327 159 -474 48 -65 631 -725 641
-725 10 0 593 660 641 725 106 146 159 303 159 474 -1 220 -66 390 -210 544
-112 120 -219 186 -373 231 -95 28 -235 39 -322 25z m261 -150 c75 -18 202
-82 267 -133 103 -83 188 -218 223 -356 22 -85 22 -235 0 -320 -32 -120 -82
-207 -176 -301 -135 -137 -283 -199 -470 -199 -116 0 -188 17 -300 72 -67 32
-102 58 -166 122 -87 87 -130 155 -163 254 -134 398 121 808 544 876 46 7 185
-1 241 -15z"/>
<path d="M1396 2149 c-40 -10 -134 -53 -151 -71 -7 -6 1 -19 25 -36 19 -15 63
-51 97 -80 l63 -52 20 40 c17 34 39 139 40 193 0 19 -29 21 -94 6z"/>
<path d="M1550 2144 c-1 -68 -24 -177 -46 -222 -25 -51 -25 -54 -8 -73 17 -19
18 -19 58 19 41 40 181 152 214 172 15 9 14 13 -17 39 -31 27 -110 62 -173 77
-23 5 -28 3 -28 -12z"/>
<path d="M1149 1988 c-42 -57 -76 -133 -85 -187 l-7 -43 54 7 c105 14 269 78
269 104 0 6 -101 89 -187 154 -8 6 -22 -5 -44 -35z"/>
<path d="M1744 1947 c-45 -34 -105 -83 -135 -109 l-53 -47 23 -25 23 -24 36
21 c31 18 53 22 127 22 50 0 109 -4 133 -8 50 -10 52 -5 22 81 -18 52 -78 153
-90 152 -3 -1 -41 -29 -86 -63z"/>
<path d="M1375 1790 c-66 -39 -150 -67 -248 -82 l-79 -13 6 -46 c9 -64 39
-150 69 -194 l24 -35 89 107 c49 60 123 143 164 186 71 75 74 80 55 93 -24 18
-21 18 -80 -16z"/>
<path d="M1401 1628 c-54 -62 -125 -144 -155 -183 l-57 -70 38 -34 c46 -41
123 -76 191 -89 l50 -9 6 30 c3 16 6 64 6 106 0 109 16 198 48 263 26 53 27
57 11 77 -10 12 -22 21 -27 21 -6 0 -56 -51 -111 -112z"/>
<path d="M1678 1719 c-16 -6 -28 -15 -28 -20 0 -6 23 -37 50 -70 28 -33 73
-95 101 -136 l51 -76 28 44 c32 52 57 125 66 191 l6 46 -38 12 c-55 16 -204
22 -236 9z"/>
<path d="M1576 1610 c-20 -50 -34 -148 -39 -269 l-3 -93 48 5 c60 7 164 56
200 94 l28 29 -37 54 c-49 74 -164 220 -174 220 -4 0 -14 -18 -23 -40z"/>
</g>
</svg>
